<?xml version="1.0" encoding="UTF-8"?><svg id="_イヤー_1" xmlns="http://www.w3.org/2000/svg" viewBox="0 0 300 300"><defs><style>.cls-1{fill:red;}</style></defs><path class="cls-1" d="M150,15c36.06,0,69.96,14.04,95.46,39.54,25.5,25.5,39.54,59.4,39.54,95.46s-14.04,69.96-39.54,95.46c-25.5,25.5-59.4,39.54-95.46,39.54s-69.96-14.04-95.46-39.54c-25.5-25.5-39.54-59.4-39.54-95.46S29.04,80.04,54.54,54.54C80.04,29.04,113.94,15,150,15m0-15C67.16,0,0,67.16,0,150s67.16,150,150,150,150-67.16,150-150S232.84,0,150,0h0Z"/></svg>